# xmcd
#
# Track frame offsets:
#	150
#	16461
#	32388
#	49833
#	78532
#	89195
#	102071
#	122019
#	136192
#	151670
#
# Disc length: 2257 seconds
#
# Revision: 1
# Processed by: cddbd v1.5.2PL0 Copyright (c) Steve Scherf et al.
# Submitted via: audiograbber 1.83.01
#
DISCID=7308cf0a
DTITLE=Grinderswitch - Unfinished business
DYEAR=2012
DGENRE=
TTITLE0=How come it is?
TTITLE1=Moving on back to you
TTITLE2=The warm kind
TTITLE3=You're gonna miss me
TTITLE4=Dr. Hector's Traveling Show
TTITLE5=I count the tears
TTITLE6=If the world was my guitar
TTITLE7=That's what you get
TTITLE8=Lady Luck
TTITLE9=Wheel of fortune
EXTD=
EXTT0=
EXTT1=
EXTT2=
EXTT3=
EXTT4=
EXTT5=
EXTT6=
EXTT7=
EXTT8=
EXTT9=
PLAYORDER=
